<svg width="1159" height="1159" viewBox="0 0 1159 1159" fill="none" xmlns="http://www.w3.org/2000/svg">
<path d="M103.65 555.88C106.39 555.31 109.2 554.9 112.02 554.66L133.9 552.58L104.18 520C95.24 510.16 90.3 497.42 90.3 484.12H65.73C65.73 503.55 72.96 522.21 86.06 536.58L103.65 555.88Z" fill="#1D1F21"/>
<path d="M180.4 603.61C178.2 604.02 175.95 604.3 173.7 604.55L150.02 606.8L179.66 639.3C188.6 649.14 193.54 661.88 193.54 675.18H218.16C218.16 655.75 210.93 637.13 197.83 622.72L180.4 603.61Z" fill="#1D1F21"/>
<path d="M221.1 531.39C217.06 511.3 201.3 496.69 180.97 494.12L177.21 493.63C164.51 492.04 154.92 481.18 154.92 468.4V455.3C166.19 450.61 174.11 439.5 174.11 426.56C174.11 409.37 160.19 395.45 143 395.45C125.81 395.45 111.89 409.37 111.89 426.56C111.89 439.22 119.48 450.12 130.34 454.97V468.4C130.34 493.59 149.16 514.94 174.14 518.04L177.9 518.53C189.62 520 195.45 528.65 197.01 536.25C198.56 543.84 196.56 554.09 186.31 560.01C181.29 562.91 175.86 564.66 170.1 565.19L113.64 570.5C104.33 571.4 95.5101 574.21 87.4301 578.87C69.6701 589.16 60.8101 608.75 64.9001 628.84C68.9401 648.93 84.7 663.54 105.03 666.11L108.79 666.6C121.49 668.19 131.08 679.05 131.08 691.83V703.75C119.85 708.44 111.97 719.55 111.97 732.45C111.97 749.64 125.89 763.56 143.08 763.56C160.27 763.56 174.19 749.64 174.19 732.45C174.19 719.75 166.56 708.81 155.66 704V691.83C155.66 666.64 136.84 645.29 111.86 642.19L108.1 641.7C96.38 640.23 90.55 631.58 88.99 623.98C87.4401 616.39 89.4401 606.14 99.6901 600.22C104.71 597.32 110.14 595.57 115.9 595.04L172.36 589.73C181.67 588.83 190.49 586.02 198.57 581.36C216.32 571.07 225.14 551.47 221.1 531.39Z" fill="#1D1F21"/>
<path d="M646.32 671.01H563.61C535.12 671.01 511.93 647.82 511.93 619.33V543.56C511.93 515.07 535.12 491.88 563.61 491.88H607.82C636.31 491.88 659.5 515.07 659.5 543.56V555.48C659.5 577.4 641.66 595.24 619.74 595.24H535.6V619.37C535.6 634.8 548.17 647.38 563.61 647.38H646.28V671.02H646.32V671.01ZM535.65 571.56H619.79C628.65 571.56 635.87 564.33 635.87 555.48V543.56C635.87 528.13 623.3 515.55 607.86 515.55H563.61C548.18 515.55 535.6 528.12 535.6 543.56V571.57H535.65V571.56Z" fill="#1D1F21"/>
<path d="M1052.44 506.77H1028.76V668.11H1052.44V506.77Z" fill="#1D1F21"/>
<path d="M950.41 671.01H906.2C877.71 671.01 854.52 647.82 854.52 619.33V543.56C854.52 515.07 877.71 491.88 906.2 491.88H950.41C978.9 491.88 1002.09 515.07 1002.09 543.56V619.37C1002.06 647.86 978.91 671.01 950.41 671.01ZM906.2 515.55C890.77 515.55 878.19 528.12 878.19 543.56V619.37C878.19 634.8 890.76 647.38 906.2 647.38H950.41C965.84 647.38 978.42 634.81 978.42 619.37V543.56C978.42 528.13 965.85 515.55 950.41 515.55H906.2Z" fill="#1D1F21"/>
<path d="M1103.67 455.42H1079.99V668.15H1103.67V455.42Z" fill="#1D1F21"/>
<path d="M1052.44 456.19H1028.76V478.36H1052.44V456.19Z" fill="#1D1F21"/>
<path d="M777.24 672.97H733.03C704.54 672.97 681.35 649.78 681.35 621.29V545.48C681.35 516.99 704.54 493.8 733.03 493.8H777.24C805.73 493.8 828.92 516.99 828.92 545.48V557.32H805.24V545.48C805.24 530.05 792.67 517.47 777.23 517.47H733.02C717.59 517.47 705.01 530.04 705.01 545.48V621.29C705.01 636.72 717.58 649.3 733.02 649.3H777.23C792.66 649.3 805.24 636.73 805.24 621.29V609.45H828.92V621.29C828.92 649.78 805.74 672.97 777.24 672.97Z" fill="#1D1F21"/>
<path d="M476.94 675.13H453.26V666.97C453.26 652.85 447.91 639.33 438.16 628.88L437.83 628.55L415.46 600.34L434.03 585.64L455.79 613.11C469.43 627.89 476.9 647.03 476.9 666.96V675.12H476.94V675.13Z" fill="#1D1F21"/>
<path d="M353.94 675.13L330.26 675.05L330.71 524.25C330.75 506.94 345.04 492.9 362.59 492.9H362.71C374.43 493.02 385.78 492.82 396.8 492.66C407.94 492.5 419.46 492.29 431.5 492.42C439.38 492.5 454.36 494.42 466.45 506.38C474.41 514.22 479.35 525.24 480.45 537.41C481.47 549 478.94 560.52 473.27 569.82C463.51 585.95 447.27 591.5 440.73 593.13L423.83 597.42C410.73 600.6 397.95 603.83 385.62 606.93C375.41 609.5 364.96 612.16 354.19 614.81L353.94 675.13ZM362.55 516.57C358.06 516.61 354.43 520.08 354.39 524.33L354.19 590.38C362.89 588.22 371.42 586.05 379.75 583.97C392.12 580.83 404.94 577.6 418.12 574.42L434.9 570.17C438.57 569.27 447.72 566.17 452.94 557.56C459.35 546.99 457.88 531.27 449.71 523.19C443.34 516.9 434.65 516.13 431.18 516.09C419.5 515.97 408.11 516.17 397.13 516.33C386.03 516.49 374.52 516.69 362.55 516.57Z" fill="#1D1F21"/>
</svg>
